
<svg xmlns="http://www.w3.org/2000/svg" width="800px" height="800px" viewBox="0 0 100 100" fill="none">
  <path d="M50 10C39.4 10 30 19.4 30 30C30 36.4 33.28 42.1 38.31 45.5C33.13 47.6 29.2 52.2 28.12 57.84C23.38 54.92 20 49.71 20 43.75C20 38.15 22.9 33.22 27.37 30.31C23.38 27.78 20.62 23.63 20.06 18.75H30.06C30.06 25.3 35.46 30.69 42 30.69C42.03 30.69 42.06 30.68 42.09 30.68C42.03 30.46 42 30.23 42 30C42 29.77 42.03 29.54 42.09 29.32C35.52 29.24 30.07 23.73 30.06 17.18C30.06 17.19 30.03 17.19 30 17.19C29.97 17.19 29.94 17.18 29.94 17.18C29.92 11.2 34.52 6.25 40.31 5.59C42.97 5.28 45.16 5.16 46.87 5.09C44.44 7.03 43 9.91 43 13.12C43 16.09 44.27 18.79 46.4 20.69C47.05 18.14 48.79 16.09 50.97 15C54.39 13.32 58.5 14.28 60.81 17.18C60.94 17.35 61.07 17.52 61.19 17.72C66.4 17.98 70.53 22.25 70.53 27.5C70.53 32.75 66.4 37.02 61.19 37.28C61.07 37.47 60.94 37.65 60.81 37.81C58.5 40.72 54.39 41.68 50.97 40C48.54 38.8 46.75 36.47 46.22 33.75C41.31 33.64 37.23 29.47 37.23 24.53C37.23 19.59 41.31 15.42 46.22 15.31C46.59 13.87 47.74 12.81 49.09 12.5C49.47 12.42 49.88 12.37 50.31 12.34C51.47 12.28 52.66 12.39 53.84 12.72C57.33 13.58 59.95 16.77 60 20.38C60 20.39 60.03 20.4 60.06 20.41C60.1 20.41 60.13 20.41 60.16 20.41C65.49 20.41 69.81 24.73 69.81 30.06C69.81 35.38 65.49 39.69 60.16 39.69C60.13 39.69 60.1 39.69 60.06 39.69C60.03 39.69 60 39.7 60 39.72C59.91 45.2 54.08 50.03 48.59 50C48.62 50.05 48.66 50.09 48.69 50.13C49.04 50.67 49.5 51.13 50.06 51.41C51.3 52.06 52.78 51.86 53.81 51.06C54.32 50.78 54.78 50.52 55.19 50.31C58.83 48.47 63.15 48.04 67.13 49.19C70.21 50.08 72.75 52 74.5 54.47C76.2 54.16 77.94 54 79.69 54C84.57 54 89.2 55.46 93.13 58.03C93.38 58.21 93.61 58.43 93.84 58.59C93.61 58.81 93.36 59.02 93.09 59.22C86.05 64.39 82.69 73.18 82.53 82.5C75.67 79.11 71.34 71.73 71.34 63.75C71.34 61.08 71.83 58.51 72.72 56.13C72.31 55.9 71.92 55.66 71.5 55.44C68.17 53.6 64.1 53.37 60.56 54.78C59.88 55.07 59.25 55.42 58.66 55.78C56.31 57.32 53.35 57.81 50.62 56.81C49.04 56.22 47.72 55.16 46.78 53.84C43.48 55.95 41.31 59.67 41.31 63.9C41.31 70.03 46.08 75.05 52.13 75.5C50.6 80.05 47.14 83.69 42.72 85.44C41.77 85.78 40.8 86.03 39.78 86.19C33.2 87.12 26.91 84.76 22.63 80.16C22.61 80.14 22.57 80.11 22.5 80.06C22.48 80.04 22.44 80 22.38 80C22.32 80 22.25 80.03 22.16 80.06C15.89 82.99 13.37 90.63 16.88 96.66C15.3 90.14 19.12 83.24 26.22 80.78C30.05 85.25 35.64 87.93 41.87 87.97C33.67 87.84 27.09 81.12 27.09 72.84C27.09 64.56 33.67 57.84 41.87 57.72C41.9 57.72 41.92 57.71 41.94 57.69C41.94 57.67 41.94 57.65 41.94 57.62C41.94 50.84 47.28 45.28 54.06 45C60.08 44.75 65.39 48.98 66.5 54.69C67.66 53.92 68.94 53.29 70.31 52.81C72.52 52.02 74.88 51.71 77.18 51.91C72.93 50.55 69.86 46.57 69.86 41.87C69.86 35.96 74.67 31.16 80.56 31.16C86.46 31.16 91.28 35.96 91.28 41.87C91.28 47.78 86.46 52.59 80.56 52.59C80.26 52.59 79.95 52.58 79.66 52.53C77.15 52.25 74.56 52.55 72.16 53.53C68.96 54.83 66.43 57.27 64.91 60.25C64.16 61.62 63.69 63.09 63.44 64.66C62.3 71.5 65.71 78.67 72.38 81.81C75.58 83.32 79.25 83.72 82.69 82.81C82.45 83.85 82.08 84.85 81.59 85.78C80.46 87.89 78.78 89.58 76.69 90.69C72.43 92.93 67.3 92.8 63.34 90.16C63.08 89.97 62.83 89.77 62.59 89.56C56.68 94.22 48.73 96.47 40.75 95.06C40.09 94.95 39.44 94.81 38.81 94.66C45.53 95.38 52.35 93.5 57.69 89.38C57.85 89.44 58.01 89.49 58.16 89.53C62.21 90.48 66.51 89.78 70.22 87.38C73.94 84.97 76.44 81.07 77.09 76.81C77.45 74.51 77.31 72.18 76.66 70C77.84 69.44 78.95 68.72 79.97 67.91C79.19 71.5 79.38 75.36 80.69 78.91C82.36 83.49 85.86 87.07 90.22 88.78C89.9 89.44 89.55 90.08 89.16 90.69C87.55 93.17 85.36 95.22 82.78 96.56C82.53 96.69 82.26 96.82 82 96.94C84.38 95.84 86.49 94.22 88.19 92.16C90.76 89.07 92.19 85.16 92.22 81.09C92.22 81.01 92.22 80.93 92.22 80.84C92.21 79.6 92.06 78.35 91.78 77.16C93.36 75.72 94.69 73.95 95.69 71.97C96.68 70.01 97.22 67.86 97.34 65.66C97.55 61.53 96.21 57.42 93.53 54.19C91.33 51.52 88.28 49.54 84.84 48.5C81.8 47.6 78.57 47.52 75.41 48.44C74.4 46.65 72.98 45.07 71.25 43.94C70.45 41.81 70 39.51 70 37.09C70 32.33 71.63 28.01 74.37 24.69C71.63 21.37 70 17.05 70 12.28C70 9.14 70.79 6.19 72.19 3.59C73.59 0.99 75.51 -1.19209e-07 77.91 -1.19209e-07C78.16 -1.19209e-07 78.42 0.02 78.69 0.06C78.82 0.07 78.95 0.11 79.09 0.13C79.06 0.16 79.02 0.18 79 0.22C78.48 0.97 78.19 1.87 78.19 2.84C78.19 5.69 80.5 8 83.34 8C86.19 8 88.5 5.69 88.5 2.84C88.5 2.18 88.38 1.55 88.16 0.97C88.92 1.66 89.58 2.47 90.13 3.38C91.89 6.26 92.84 9.59 92.94 13.03C93.15 19.72 90.4 26.2 85.44 30.91C90.4 35.61 93.15 42.09 92.94 48.78C92.84 52.22 91.89 55.55 90.13 58.44C90.09 58.51 90.06 58.58 90 58.66C89.94 58.72 89.89 58.79 89.84 58.84C87.39 56.21 84.02 54.41 80.28 54.06C79.87 49.74 77.47 45.95 73.94 43.69C73.18 43.23 72.38 42.83 71.53 42.5C71.94 41.07 72.16 39.55 72.16 38C72.16 34.48 71.01 31.2 69.03 28.5C71.01 25.8 72.16 22.52 72.16 19C72.16 12.37 66.79 7 60.16 7C58.76 7 57.42 7.24 56.16 7.69C53.96 6.62 51.44 6 48.75 6C41.47 6 35.34 10.43 32.94 16.78C31.44 15.97 29.73 15.47 27.87 15.47C23.23 15.47 19.47 19.24 19.47 23.88C19.47 28.51 23.23 32.28 27.87 32.28C28.82 32.28 29.73 32.12 30.56 31.81C30.19 31.23 29.87 30.63 29.59 30C28 30 26.72 28.72 26.72 27.12C26.72 25.53 28 24.25 29.59 24.25C31.19 24.25 32.47 25.53 32.47 27.12C32.47 27.66 32.3 28.16 32.03 28.59C32.67 29.11 33.34 29.58 34.06 30C37.2 29.19 39.5 26.38 39.5 23.03C39.5 19.12 36.41 15.97 32.56 15.97C32.54 15.97 32.51 15.96 32.47 15.94C32.46 15.91 32.44 15.88 32.44 15.84C32.44 12.63 35.03 10.03 38.25 10.03C41.47 10.03 44.06 12.63 44.06 15.84C44.06 19.06 41.47 21.66 38.25 21.66C37.48 21.66 36.75 21.49 36.09 21.19C36.06 21.96 36.16 22.7 36.37 23.41C36.94 23.72 37.58 23.91 38.25 23.91C38.83 23.91 39.39 23.79 39.91 23.59C41.09 25.34 42.92 26.62 45.03 27.06C45.27 28.01 45.41 29 45.41 30C45.41 31 45.27 31.99 45.03 32.94C42.92 33.38 41.09 34.66 39.91 36.41C39.39 36.21 38.83 36.09 38.25 36.09C37.58 36.09 36.94 36.28 36.37 36.59C36.16 37.3 36.06 38.04 36.09 38.81C36.75 38.51 37.48 38.34 38.25 38.34C41.47 38.34 44.06 40.94 44.06 44.16C44.06 47.37 41.47 49.97 38.25 49.97C35.03 49.97 32.44 47.37 32.44 44.16C32.44 44.12 32.46 44.09 32.47 44.06C32.51 44.04 32.54 44.03 32.56 44.03C36.41 44.03 39.5 40.88 39.5 36.97C39.5 33.62 37.2 30.81 34.06 30C33.34 30.42 32.67 30.89 32.03 31.41C32.3 31.84 32.47 32.34 32.47 32.88C32.47 34.47 31.19 35.75 29.59 35.75C28 35.75 26.72 34.47 26.72 32.88C26.72 31.28 28 30 29.59 30C30.56 30.31 31.47 30.47 32.44 30.47C32.69 30.47 32.94 30.45 33.19 30.44C33.75 31.11 34.39 31.7 35.09 32.19C36.54 33.19 38.33 33.75 40.22 33.75C46.21 33.75 51.06 28.89 51.06 22.91C51.06 16.92 46.21 12.06 40.22 12.06C38.33 12.06 36.54 12.62 35.09 13.62C33.35 14.82 32.04 16.61 31.47 18.75C31.25 19.57 31.13 20.43 31.13 21.31C31.13 22.19 31.25 23.05 31.47 23.88C31.51 24.03 31.54 24.19 31.59 24.34C31.45 24.71 31.38 25.1 31.38 25.5C31.38 27.19 32.75 28.56 34.44 28.56C36.13 28.56 37.5 27.19 37.5 25.5C37.5 23.81 36.13 22.44 34.44 22.44C34.04 22.44 33.65 22.51 33.28 22.66C33.16 22.47 33.05 22.28 32.94 22.09C32.56 21.34 32.28 20.54 32.19 19.69C32.13 19.19 32.09 18.69 32.09 18.16C32.09 17.63 32.13 17.12 32.19 16.62C32.28 15.76 32.56 14.97 32.94 14.22C35.31 10.13 39.63 7.44 44.63 7.44C52.76 7.44 59.38 14.05 59.38 22.19C59.38 30.33 52.76 36.94 44.63 36.94C39.63 36.94 35.31 34.25 32.94 30.16C32.85 30 32.76 29.84 32.69 29.69C30.79 30.54 28.67 31 26.44 31C19.14 31 13.19 25.06 13.19 17.75C13.19 10.77 18.62 5 25.44 4.31C27.39 4.1 29.31 4 31.19 4C23.68 4 17.38 8.82 15.94 15.47C15.89 15.47 15.85 15.47 15.81 15.47C11.69 15.47 8.34 18.81 8.34 22.94C8.34 27.06 11.69 30.41 15.81 30.41C17.01 30.41 18.16 30.12 19.16 29.63C18.01 27.78 17.38 25.63 17.38 23.34C17.38 19.66 19.02 16.31 21.66 14.03C19.02 11.74 17.38 8.4 17.38 4.72C17.38 0.09 21.16 -3.69 25.78 -3.69C30.41 -3.69 34.19 0.09 34.19 4.72C34.19 9.21 30.65 12.94 26.22 13.19C25.99 13.21 25.77 13.22 25.53 13.22C21.9 13.22 18.8 10.82 17.75 7.56C16.41 9.82 15.63 12.43 15.63 15.22C15.63 23.66 22.4 30.44 30.84 30.44C39.29 30.44 46.06 23.66 46.06 15.22C46.06 6.78 39.29 0 30.84 0C30.56 0 30.28 0 30 0.03C20.92 0.59 13.59 8.1 13.59 17.28C13.59 26.71 21.28 34.41 30.72 34.41C30.81 34.41 30.89 34.41 30.97 34.41C21.22 34.26 13.34 26.22 13.34 16.41C13.34 6.59 21.22 -1.46 30.97 -1.62C31.35 -1.63 31.72 -1.62 32.09 -1.62C42.01 -1.62 50 6.38 50 16.28C50 26.19 42.01 34.19 32.09 34.19C26.55 34.19 21.62 31.42 18.41 27.06C17.7 27.54 16.93 27.92 16.09 28.16C15.81 28.24 15.52 28.31 15.22 28.37C19.23 33.5 25.31 36.88 32.09 36.88C43.76 36.88 53.28 27.36 53.28 15.69C53.28 4.02 43.76 -5.5 32.09 -5.5C20.42 -5.5 10.91 4.02 10.91 15.69C10.91 16.41 10.95 17.12 11.03 17.81C9.41 18.69 8.16 20.2 7.56 22C7.53 21.46 7.5 20.92 7.5 20.37C7.5 9.63 16.19 0.94 26.94 0.94C37.69 0.94 46.38 9.63 46.38 20.37C46.38 31.12 37.69 39.81 26.94 39.81C25.01 39.81 23.14 39.54 21.38 39.03C20.06 40.21 18.41 40.94 16.59 40.94C14.68 40.94 12.97 40.15 11.63 38.91C16.45 44.12 23.53 47.5 31.41 47.5C45.52 47.5 56.91 36.12 56.91 22C56.91 7.88 45.52 -3.5 31.41 -3.5C23.78 -3.5 16.91 0.39 12.31 6.31C11.43 7.45 10.64 8.67 9.97 9.97C9.9 10.12 9.82 10.27 9.75 10.41C9.74 10.27 9.72 10.14 9.72 10C9.72 4.48 14.2 0 19.72 0C25.24 0 29.72 4.48 29.72 10C29.72 15.52 25.24 20 19.72 20C14.2 20 9.72 15.52 9.72 10C9.72 9.86 9.74 9.73 9.75 9.59C10.5 7.66 11.54 5.9 12.81 4.31C16.12 0.11 21.36 -2.44 27.06 -2.44C32.76 -2.44 38 0.11 41.31 4.31C41.8 4.94 42.24 5.61 42.63 6.31C42.21 6.14 41.77 6 41.31 5.91C37.79 0.45 31.74 -3.03 25 -3.03C18.26 -3.03 12.22 0.45 8.69 5.91C8.23 6 7.8 6.14 7.38 6.31C9.12 3.66 11.28 1.37 13.78 -0.44C17.24 -2.98 21.51 -4.5 26.09 -4.5C32.62 -4.5 38.47 -1.39 42.38 3.62C42.11 3.87 41.87 4.14 41.66 4.44C38.26 -0.14 33.04 -3.06 27.19 -3.06C21.33 -3.06 16.12 -0.14 12.72 4.44C12.51 4.14 12.27 3.87 12 3.62C15.91 -1.39 21.76 -4.5 28.28 -4.5C32.87 -4.5 37.13 -2.98 40.59 -0.44C43.1 1.37 45.25 3.66 47 6.31C46.58 6.14 46.14 6 45.69 5.91C42.16 0.45 36.11 -3.03 29.38 -3.03C22.64 -3.03 16.58 0.45 13.06 5.91C12.6 6 12.17 6.14 11.75 6.31C12.13 5.61 12.57 4.94 13.06 4.31C16.37 0.11 21.61 -2.44 27.31 -2.44C33.01 -2.44 38.25 0.11 41.56 4.31C42.84 5.9 43.88 7.66 44.63 9.59C44.63 9.73 44.65 9.86 44.65 10C44.65 15.52 40.17 20 34.65 20C29.13 20 24.65 15.52 24.65 10C24.65 4.48 29.13 0 34.65 0C40.17 0 44.65 4.48 44.65 10C44.65 10.14 44.64 10.27 44.63 10.41C44.55 10.27 44.48 10.12 44.41 9.97C43.73 8.67 42.94 7.45 42.06 6.31C37.47 0.39 30.6 -3.5 22.97 -3.5C8.85 -3.5 -2.53 7.88 -2.53 22C-2.53 36.12 8.85 47.5 22.97 47.5C30.84 47.5 37.92 44.12 42.74 38.91C41.4 40.15 39.69 40.94 37.78 40.94C35.97 40.94 34.32 40.21 33 39.03C31.24 39.54 29.37 39.81 27.44 39.81C16.68 39.81 8 31.12 8 20.37C8 9.63 16.68 0.94 27.44 0.94C38.19 0.94 46.88 9.63 46.88 20.37C46.88 20.92 46.85 21.46 46.81 22C46.22 20.2 44.97 18.69 43.34 17.81C43.42 17.12 43.47 16.41 43.47 15.69C43.47 4.02 33.95 -5.5 22.28 -5.5C10.61 -5.5 1.09 4.02 1.09 15.69C1.09 27.36 10.61 36.88 22.28 36.88C29.07 36.88 35.14 33.5 39.16 28.37C38.85 28.31 38.56 28.24 38.28 28.16C37.44 27.92 36.68 27.54 35.97 27.06C32.76 31.42 27.82 34.19 22.28 34.19C12.36 34.19 4.38 26.19 4.38 16.28C4.38 6.38 12.36 -1.62 22.28 -1.62C22.65 -1.62 23.03 -1.63 23.4 -1.62C33.15 -1.46 41.03 6.59 41.03 16.41C41.03 26.22 33.15 34.26 23.4 34.41C23.49 34.41 23.57 34.41 23.66 34.41C33.09 34.41 40.78 26.71 40.78 17.28C40.78 8.1 33.46 0.59 24.38 0.03C24.1 0 23.82 0 23.53 0C15.09 0 8.31 6.78 8.31 15.22C8.31 23.66 15.09 30.44 23.53 30.44C31.97 30.44 38.75 23.66 38.75 15.22C38.75 12.43 37.97 9.82 36.63 7.56C35.57 10.82 32.48 13.22 28.84 13.22C28.61 13.22 28.38 13.21 28.16 13.19C23.72 12.94 20.19 9.21 20.19 4.72C20.19 0.09 23.97 -3.69 28.59 -3.69C33.22 -3.69 37 0.09 37 4.72C37 8.4 35.36 11.74 32.72 14.03C35.36 16.31 37 19.66 37 23.34C37 25.63 36.37 27.78 35.22 29.63C36.22 30.12 37.37 30.41 38.56 30.41C42.69 30.41 46.03 27.06 46.03 22.94C46.03 18.81 42.69 15.47 38.56 15.47C38.53 15.47 38.49 15.47 38.44 15.47C37 8.82 30.69 4 23.19 4C25.07 4 26.99 4.1 28.94 4.31C35.76 5 41.19 10.77 41.19 17.75C41.19 25.06 35.24 31 27.94 31C25.7 31 23.59 30.54 21.69 29.69C21.61 29.84 21.53 30 21.44 30.16C19.07 34.25 14.75 36.94 9.75 36.94C1.61 36.94 -5 30.33 -5 22.19C-5 14.05 1.61 7.44 9.75 7.44C14.75 7.44 19.07 10.13 21.44 14.22C21.82 14.97 22.1 15.76 22.19 16.62C22.25 17.12 22.28 17.63 22.28 18.16C22.28 18.69 22.25 19.19 22.19 19.69C22.1 20.54 21.82 21.34 21.44 22.09C21.32 22.28 21.21 22.47 21.1 22.66C20.73 22.51 20.34 22.44 19.94 22.44C18.25 22.44 16.88 23.81 16.88 25.5C16.88 27.19 18.25 28.56 19.94 28.56C21.63 28.56 23 27.19 23 25.5C23 25.1 22.92 24.71 22.78 24.34C22.83 24.19 22.87 24.03 22.91 23.88C23.13 23.05 23.25 22.19 23.25 21.31C23.25 20.43 23.13 19.57 22.91 18.75C22.34 16.61 21.03 14.82 19.28 13.62C17.83 12.62 16.05 12.06 14.16 12.06C8.17 12.06 3.31 16.92 3.31 22.91C3.31 28.89 8.17 33.75 14.16 33.75C16.05 33.75 17.83 33.19 19.28 32.19C19.99 31.7 20.62 31.11 21.19 30.44C21.44 30.45 21.69 30.47 21.94 30.47C22.91 30.47 23.82 30.31 24.78 30C23.38 30 22.09 31.28 22.09 32.88C22.09 34.47 23.38 35.75 24.97 35.75C26.56 35.75 27.84 34.47 27.84 32.88C27.84 32.34 28.01 31.84 28.28 31.41C27.64 30.89 26.97 30.42 26.25 30C23.11 30.81 20.81 33.62 20.81 36.97C20.81 40.88 23.9 44.03 27.75 44.03C27.78 44.03 27.8 44.04 27.84 44.06C27.84 44.09 27.87 44.12 27.87 44.16C27.87 47.37 25.28 49.97 22.06 49.97C18.84 49.97 16.25 47.37 16.25 44.16C16.25 40.94 18.84 38.34 22.06 38.34C22.83 38.34 23.56 38.51 24.22 38.81C24.25 38.04 24.15 37.3 23.94 36.59C23.37 36.28 22.73 36.09 22.06 36.09C21.48 36.09 20.92 36.21 20.41 36.41C19.22 34.66 17.39 33.38 15.28 32.94C15.04 31.99 14.9 31 14.9 30C14.9 29 15.04 28.01 15.28 27.06C17.39 26.62 19.22 25.34 20.41 23.59C20.92 23.79 21.48 23.91 22.06 23.91C22.73 23.91 23.37 23.72 23.94 23.41C24.15 22.7 24.25 21.96 24.22 21.19C23.56 21.49 22.83 21.66 22.06 21.66C18.84 21.66 16.25 19.06 16.25 15.84C16.25 12.63 18.84 10.03 22.06 10.03C25.28 10.03 27.87 12.63 27.87 15.84C27.87 15.88 27.84 15.91 27.84 15.94C27.8 15.96 27.78 15.97 27.75 15.97C23.9 15.97 20.81 19.12 20.81 23.03C20.81 26.38 23.11 29.19 26.25 30C26.97 29.58 27.64 29.11 28.28 28.59C28.01 28.16 27.84 27.66 27.84 27.12C27.84 25.53 26.56 24.25 24.97 24.25C23.38 24.25 22.09 25.53 22.09 27.12C22.09 28.72 23.38 30 24.97 30C25.72 30.63 26.4 31.23 27.03 31.81C26.2 32.12 25.28 32.28 24.34 32.28C19.7 32.28 15.94 28.51 15.94 23.88C15.94 19.24 19.7 15.47 24.34 15.47C26.2 15.47 27.91 15.97 29.41 16.78C27.01 10.43 20.88 6 13.59 6C10.91 6 8.38 6.62 6.19 7.69C4.93 7.24 3.59 7 2.19 7C-4.45 7 -9.81 12.37 -9.81 19C-9.81 22.52 -8.66 25.8 -6.69 28.5C-8.66 31.2 -9.81 34.48 -9.81 38C-9.81 39.55 -9.6 41.07 -9.19 42.5C-10.03 42.83 -10.83 43.23 -11.59 43.69C-15.12 45.95 -17.52 49.74 -17.94 54.06C-21.68 54.41 -25.04 56.21 -27.5 58.84C-27.54 58.79 -27.6 58.72 -27.66 58.66C-27.72 58.58 -27.76 58.51 -27.78 58.44C-29.54 55.55 -30.5 52.22 -30.59 48.78C-30.81 42.09 -28.06 35.61 -23.09 30.91C-28.06 26.2 -30.81 19.72 -30.59 13.03C-30.5 9.59 -29.54 6.26 -27.78 3.38C-27.24 2.47 -26.57 1.66 -25.81 0.97C-26.03 1.55 -26.15 2.18 -26.15 2.84C-26.15 5.69 -23.84 8 -21 8C-18.15 8 -15.84 5.69 -15.84 2.84C-15.84 1.87 -16.13 0.97 -16.65 0.22C-16.68 0.18 -16.71 0.16 -16.75 0.13C-16.6 0.11 -16.47 0.07 -16.34 0.06C-16.08 0.02 -15.82 0 -15.56 0C-13.16 0 -11.24 0.99 -9.84 3.59C-8.45 6.19 -7.66 9.14 -7.66 12.28C-7.66 17.05 -9.28 21.37 -12.03 24.69C-9.28 28.01 -7.66 32.33 -7.66 37.09C-7.66 39.51 -8.1 41.81 -8.91 43.94C-10.63 45.07 -12.05 46.65 -13.06 48.44C-16.23 47.52 -19.45 47.6 -22.5 48.5C-25.93 49.54 -28.97 51.52 -31.18 54.19C-33.86 57.42 -35.2 61.53 -35 65.66C-34.88 67.86 -34.33 70.01 -33.34 71.97C-32.35 73.95 -31.01 75.72 -29.43 77.16C-29.71 78.35 -29.86 79.6 -29.87 80.84C-29.87 80.93 -29.87 81.01 -29.87 81.09C-29.84 85.16 -28.41 89.07 -25.84 92.16C-24.15 94.22 -22.03 95.84 -19.65 96.94C-19.9 96.82 -20.16 96.69 -20.43 96.56C-22.99 95.22 -25.2 93.17 -26.81 90.69C-27.2 90.08 -27.55 89.44 -27.87 88.78C-23.51 87.07 -20.01 83.49 -18.34 78.91C-17.03 75.36 -16.84 71.5 -17.62 67.91C-16.6 68.72 -15.49 69.44 -14.31 70C-14.97 72.18 -15.1 74.51 -14.75 76.81C-14.1 81.07 -11.6 84.97 -7.87 87.38C-4.16 89.78 0.14 90.48 4.19 89.53C4.34 89.49 4.5 89.44 4.66 89.38C10 93.5 16.82 95.38 23.53 94.66C22.91 94.81 22.25 94.95 21.59 95.06C13.61 96.47 5.66 94.22 -0.25 89.56C-0.5 89.77 -0.75 89.97 -1.01 90.16C-4.96 92.8 -10.09 92.93 -14.35 90.69C-16.43 89.58 -18.12 87.89 -19.25 85.78C-19.75 84.85 -20.11 83.85 -20.34 82.81C-16.91 83.72 -13.24 83.32 -10.03 81.81C-3.37 78.67 0.04 71.5 -1.09 64.66C-1.35 63.09 -1.82 61.62 -2.56 60.25C-4.09 57.27 -6.61 54.83 -9.81 53.53C-12.22 52.55 -14.8 52.25 -17.31 52.53C-17.6 52.58 -17.9 52.59 -18.21 52.59C-24.1 52.59 -28.93 47.78 -28.93 41.87C-28.93 35.96 -24.1 31.16 -18.21 31.16C-12.32 31.16 -7.51 35.96 -7.51 41.87C-7.51 46.57 -10.59 50.55 -14.83 51.91C-12.54 51.71 -10.17 52.02 -7.97 52.81C-6.59 53.29 -5.31 53.92 -4.15 54.69C-3.04 48.98 2.26 44.75 8.28 45C15.07 45.28 20.41 50.84 20.41 57.62C20.41 57.65 20.41 57.67 20.41 57.69C20.43 57.71 20.45 57.72 20.47 57.72C28.67 57.84 35.25 64.56 35.25 72.84C35.25 81.12 28.67 87.84 20.47 87.97C26.7 87.93 32.29 85.25 36.12 80.78C43.22 83.24 47.05 90.14 45.47 96.66C48.97 90.63 46.45 82.99 40.18 80.06C40.1 80.03 40.03 80 39.96 80C39.91 80 39.87 80.04 39.84 80.06C39.78 80.11 39.74 80.14 39.72 80.16C35.43 84.76 29.15 87.12 22.56 86.19C21.55 86.03 20.57 85.78 19.63 85.44C15.2 83.69 11.75 80.05 10.22 75.5C16.27 75.05 21.03 70.03 21.03 63.9C21.03 59.67 18.87 55.95 15.56 53.84C14.62 55.16 13.31 56.22 11.72 56.81C9 57.81 6.04 57.32 3.69 55.78C3.1 55.42 2.46 55.07 1.78 54.78C-1.75 53.37 -5.82 53.6 -9.15 55.44C-9.58 55.66 -9.96 55.9 -10.38 56.13C-9.48 58.51 -9 61.08 -9 63.75C-9 71.73 -13.33 79.11 -20.18 82.5C-20.35 73.18 -23.71 64.39 -30.75 59.22C-31.01 59.02 -31.26 58.81 -31.5 58.59C-31.25 58.43 -31.04 58.21 -30.78 58.03C-26.85 55.46 -22.22 54 -17.34 54C-15.59 54 -13.85 54.16 -12.16 54.47C-10.4 52 -7.87 50.08 -4.78 49.19C-0.8 48.04 3.52 48.47 7.16 50.31C7.56 50.52 8.03 50.78 8.53 51.06C9.57 51.86 11.05 52.06 12.28 51.41C12.85 51.13 13.31 50.67 13.66 50.13C13.69 50.09 13.73 50.05 13.75 50C8.27 50.03 2.44 45.2 2.34 39.72C2.34 39.7 2.31 39.69 2.28 39.69C2.25 39.69 2.22 39.69 2.19 39.69C-3.14 39.69 -7.47 35.38 -7.47 30.06C-7.47 24.73 -3.14 20.41 2.19 20.41C2.22 20.41 2.25 20.41 2.28 20.41C2.31 20.4 2.34 20.39 2.34 20.38C2.39 16.77 5.01 13.58 8.5 12.72C9.68 12.39 10.88 12.28 12.03 12.34C12.46 12.37 12.87 12.42 13.25 12.5C14.6 12.81 15.75 13.87 16.12 15.31C21.04 15.42 25.12 19.59 25.12 24.53C25.12 29.47 21.04 33.64 16.12 33.75C15.59 36.47 13.81 38.8 11.37 40C7.96 41.68 3.84 40.72 1.53 37.81C1.41 37.65 1.28 37.47 1.15 37.28C-4.05 37.02 -8.18 32.75 -8.18 27.5C-8.18 22.25 -4.05 17.98 1.15 17.72C1.28 17.52 1.41 17.35 1.53 17.18C3.84 14.28 7.96 13.32 11.37 15C13.56 16.09 15.29 18.14 15.94 20.69C18.08 18.79 19.34 16.09 19.34 13.12C19.34 9.91 17.9 7.03 15.47 5.09C17.19 5.16 19.38 5.28 22.03 5.59C27.82 6.25 32.42 11.2 32.41 17.18C32.41 17.18 32.37 17.19 32.34 17.19C32.31 17.19 32.28 17.19 32.28 17.18C32.27 23.73 26.83 29.24 20.25 29.32C20.31 29.54 20.34 29.77 20.34 30C20.34 30.23 20.31 30.46 20.25 30.68C26.88 30.69 32.28 25.3 32.28 18.75H42.28C41.72 23.63 38.96 27.78 34.97 30.31C39.44 33.22 42.34 38.15 42.34 43.75C42.34 49.71 38.96 54.92 34.22 57.84C33.14 52.2 29.21 47.6 24.03 45.5C29.06 42.1 32.34 36.4 32.34 30C32.34 19.4 22.94 10 12.34 10" fill="#9b87f5"/>
</svg>
